<svg width="44" height="44" viewBox="0 0 44 44" fill="none" xmlns="http://www.w3.org/2000/svg">
<g filter="url(#filter0_d)">
<path fill-rule="evenodd" clip-rule="evenodd" d="M22 0C34.15 0 44 9.85 44 22C44 34.15 34.15 44 22 44C9.85 44 0 34.15 0 22C0 9.85 9.85 0 22 0ZM22 1C10.402 1 1 10.402 1 22C1 33.598 10.402 43 22 43C33.598 43 43 33.598 43 22C43 10.402 33.598 1 22 1ZM23.096 11C25.106 11.004 25.524 11.02 26.536 11.066C27.706 11.12 28.506 11.306 29.206 11.578C29.9398 11.854 30.6046 12.2867 31.154 12.846C31.7134 13.3957 32.1461 14.0608 32.422 14.795C32.694 15.495 32.88 16.294 32.934 17.465C32.987 18.638 33 19.013 33 22C33 24.987 32.987 25.362 32.934 26.535C32.88 27.706 32.694 28.505 32.422 29.205C32.1461 29.9392 31.7134 30.6043 31.154 31.154C30.6044 31.7137 29.9392 32.1468 29.205 32.423C28.505 32.694 27.706 32.88 26.535 32.933C25.362 32.987 24.987 33 22 33C19.013 33 18.638 32.987 17.465 32.934C16.294 32.88 15.495 32.694 14.795 32.423C14.0607 32.1465 13.3955 31.7131 12.846 31.153C12.2864 30.6037 11.8533 29.9389 11.577 29.205C11.306 28.505 11.12 27.706 11.067 26.535C11.02 25.524 11.004 25.106 11.001 23.096V20.904C11.004 18.894 11.02 18.476 11.066 17.464C11.12 16.294 11.306 15.494 11.577 14.794C11.8536 14.06 12.287 13.3952 12.847 12.846C13.3964 12.2867 14.0612 11.854 14.795 11.578C15.495 11.306 16.294 11.12 17.465 11.066C18.476 11.02 18.894 11.004 20.904 11.001H23.096V11ZM23.076 12.983H20.923C18.951 12.986 18.555 13 17.555 13.046C16.483 13.096 15.9 13.274 15.513 13.425C14.999 13.625 14.633 13.863 14.248 14.248C13.8826 14.6029 13.6013 15.0351 13.425 15.513C13.275 15.9 13.095 16.483 13.046 17.555C12.993 18.715 12.982 19.063 12.982 22C12.982 24.937 12.993 25.285 13.046 26.445C13.095 27.517 13.274 28.1 13.425 28.488C13.625 29.001 13.863 29.368 14.248 29.752C14.633 30.137 14.999 30.376 15.513 30.575C15.9 30.725 16.483 30.905 17.555 30.954C18.715 31.007 19.063 31.018 22 31.018C24.937 31.018 25.285 31.007 26.445 30.954C27.517 30.905 28.1 30.726 28.487 30.575C29.001 30.375 29.367 30.137 29.752 29.752C30.137 29.367 30.376 29.001 30.575 28.488C30.725 28.1 30.905 27.518 30.954 26.445C31 25.445 31.014 25.049 31.017 23.077V20.924C31.014 18.951 31 18.555 30.954 17.555C30.904 16.483 30.726 15.9 30.575 15.513C30.375 14.999 30.137 14.633 29.752 14.248C29.3971 13.8826 28.9649 13.6014 28.487 13.425C28.1 13.275 27.517 13.095 26.445 13.046C25.445 13 25.049 12.986 23.076 12.983ZM22.022 16.369C23.5213 16.369 24.9591 16.9646 26.0193 18.0247C27.0794 19.0849 27.675 20.5227 27.675 22.022C27.675 23.5213 27.0794 24.9591 26.0193 26.0193C24.9591 27.0794 23.5213 27.675 22.022 27.675C20.5227 27.675 19.0849 27.0794 18.0247 26.0193C16.9646 24.9591 16.369 23.5213 16.369 22.022C16.369 20.5227 16.9646 19.0849 18.0247 18.0247C19.0849 16.9646 20.5227 16.369 22.022 16.369ZM22.022 18.352C21.0487 18.352 20.1152 18.7387 19.4269 19.4269C18.7387 20.1152 18.352 21.0487 18.352 22.022C18.352 22.9953 18.7387 23.9288 19.4269 24.6171C20.1152 25.3053 21.0487 25.692 22.022 25.692C22.9953 25.692 23.9288 25.3053 24.6171 24.6171C25.3053 23.9288 25.692 22.9953 25.692 22.022C25.692 21.0487 25.3053 20.1152 24.6171 19.4269C23.9288 18.7387 22.9953 18.352 22.022 18.352ZM27.849 14.798C28.024 14.7932 28.1982 14.8235 28.3613 14.8871C28.5244 14.9507 28.6731 15.0464 28.7986 15.1685C28.9241 15.2906 29.0239 15.4366 29.092 15.5978C29.1601 15.7591 29.1952 15.9324 29.1952 16.1075C29.1952 16.2826 29.1601 16.4559 29.092 16.6172C29.0239 16.7784 28.9241 16.9244 28.7986 17.0465C28.6731 17.1686 28.5244 17.2643 28.3613 17.3279C28.1982 17.3915 28.024 17.4218 27.849 17.417C27.5016 17.417 27.1684 17.279 26.9227 17.0333C26.677 16.7876 26.539 16.4544 26.539 16.107C26.539 15.7596 26.677 15.4264 26.9227 15.1807C27.1684 14.935 27.5016 14.797 27.849 14.797V14.798Z" fill="white"/>
</g>
<defs>
<filter id="filter0_d" x="-4" y="0" width="52" height="52" filterUnits="userSpaceOnUse" color-interpolation-filters="sRGB">
<feFlood flood-opacity="0" result="BackgroundImageFix"/>
<feColorMatrix in="SourceAlpha" type="matrix" values="0 0 0 0 0 0 0 0 0 0 0 0 0 0 0 0 0 0 127 0" result="hardAlpha"/>
<feOffset dy="4"/>
<feGaussianBlur stdDeviation="2"/>
<feComposite in2="hardAlpha" operator="out"/>
<feColorMatrix type="matrix" values="0 0 0 0 0 0 0 0 0 0 0 0 0 0 0 0 0 0 0.25 0"/>
<feBlend mode="normal" in2="BackgroundImageFix" result="effect1_dropShadow"/>
<feBlend mode="normal" in="SourceGraphic" in2="effect1_dropShadow" result="shape"/>
</filter>
</defs>
</svg>
